# xmcd
#
# Track frame offsets:
#	150
#	16307
#	30503
#	47794
#	69560
#	87754
#	105070
#	129261
#	144577
#	166202
#	186320
#	217443
#	241323
#	258175
#	280059
#	307887
#
# Disc length: 4436
#
# Revision: 2
# Processed by: cddbd v1.5.1PL0 Copyright (c) Steve Scherf et al.
# Submitted via: CDex 1.51
# Normalized: r1:DSETVAR1,TDELIM( - )
#
DISCID=d4115210
DTITLE=Various Artist - Storm - New Age
DYEAR=1999
DGENRE=New Age
TTITLE0=Thomas Loefke and friends - rime on the moor
TTITLE1=Andreas Vollenweider - morning at boma park(from book of roses)
TTITLE2=Enya - caribean blue
TTITLE3=Shahin and Sepehr - Ode To A Friends
TTITLE4=3rd Force feat. Brian Hughes and Ozzie Ahlers - The Closer You Get
TTITLE5=Software - Modesty-Blaze
TTITLE6=Hiroki Okano - Kyoto
TTITLE7=Craig Chaquico feat. Douglas Spotted Eagle - Indian Spring
TTITLE8=Dancing Fantasy - Malibu
TTITLE9=Kazu and Keiko Matsui - El Condor Pasa
TTITLE10=Sacred Spirits - For-Cheney-Nahana
TTITLE11=Mythos - Angels Weep
TTITLE12=G.E.N.E. - Cat China
TTITLE13=Sunyata - Refuge
TTITLE14=Banco de Gaia - Big Men Cry
TTITLE15=Chris Spheeris feat. Robert Corn - The Oasis
EXTD=YEAR: 1999
EXTT0=
EXTT1=
EXTT2=
EXTT3=
EXTT4=
EXTT5=
EXTT6=
EXTT7=
EXTT8=
EXTT9=
EXTT10=
EXTT11=
EXTT12=
EXTT13=
EXTT14=
EXTT15=
PLAYORDER=
